<svg width="214" height="51" viewBox="0 0 214 51" xmlns="http://www.w3.org/2000/svg">
  <g fill="none" fill-rule="evenodd">
    <g transform="translate(-59 -41)">
      <g transform="translate(59 41)">
        <polygon fill="#000" points="1 43.5 1 44.786 3.185 44.786 3.185 50.5 4.804 50.5 4.804 44.786 7 44.786 7 43.5"/>
        <polygon fill="#000" points="13.415 43.5 13.415 46.215 10.585 46.215 10.585 43.5 9 43.5 9 50.5 10.585 50.5 10.585 47.511 13.415 47.511 13.415 50.5 15 50.5 15 43.5"/>
        <polygon fill="#000" points="17 43.5 17 50.5 22 50.5 22 49.251 18.561 49.251 18.561 47.511 20.927 47.511 20.927 46.291 18.561 46.291 18.561 44.786 21.827 44.786 21.827 43.5"/>
        <g transform="translate(0 .5)">
          <path fill="#000" d="M29.13 48.836h1.244c.855 0 1.234-.343 1.234-.944 0-.618-.446-.924-1.301-.924H29.13v1.868Zm0-2.962h1.139c.808 0 1.178-.305 1.178-.848 0-.553-.333-.857-1.159-.857H29.13v1.705Zm-1.519 4.143V42.97h2.81c1.292 0 2.507.315 2.507 1.743 0 1-.627 1.476-1.339 1.619v.019c.855.152 1.529.6 1.529 1.724 0 1.419-1.244 1.943-2.554 1.943H27.61Z"/>
          <polygon fill="#000" points="35.404 50.017 36.942 50.017 36.942 42.969 35.404 42.969"/>
          <path fill="#000" d="M44.159 46.493c0-1.476-.684-2.372-1.766-2.372-1.092 0-1.767.896-1.767 2.372 0 1.476.675 2.41 1.767 2.41 1.082 0 1.766-.934 1.766-2.41Zm-5.08 0c0-2.476 1.614-3.657 3.314-3.657 1.69 0 3.304 1.181 3.304 3.657 0 2.476-1.614 3.657-3.304 3.657-1.7 0-3.314-1.181-3.314-3.657Z"/>
          <path fill="#000" d="M49.303 46.312h1.054c.959 0 1.32-.37 1.32-1.048 0-.657-.351-1.028-1.32-1.028h-1.054v2.076Zm-1.538 3.705V42.97h2.554c1.501 0 2.868.4 2.868 2.257 0 1.895-1.481 2.286-2.887 2.286h-.997v2.504h-1.538Z"/>
          <polygon fill="#000" points="55.132 50.017 55.132 42.969 56.679 42.969 56.679 45.703 59.443 45.703 59.443 42.969 60.991 42.969 60.991 50.017 59.443 50.017 59.443 47.007 56.679 47.007 56.679 50.017"/>
          <path fill="#000" d="M65.167 47.321h1.652l-.807-2.4h-.02l-.825 2.4Zm-2.346 2.696 2.488-7.077h1.472l2.488 7.077h-1.567l-.522-1.571h-2.393l-.541 1.571h-1.425Z"/>
          <path fill="#000" d="M72.619 46.16h1.054c.892 0 1.32-.257 1.32-.972 0-.696-.428-.953-1.32-.953H72.62v1.924Zm-1.52 3.857V42.97h2.64c1.729 0 2.764.62 2.764 2.18 0 1.115-.523 1.725-1.463 2.01l1.567 2.857h-1.633l-1.462-2.657h-.893v2.657h-1.52Z"/>
          <path fill="#000" d="M78.742 50.017V42.97h2.042l1.566 5.18h.02l1.462-5.18h2.089v7.048H84.43v-4.81h-.019c-.105.61-.237 1.057-.39 1.572l-1.052 3.238H81.6l-1.044-3.238c-.161-.534-.256-.838-.408-1.647h-.02v4.885h-1.386Z"/>
          <path fill="#000" d="M90.096 47.321h1.652l-.807-2.4h-.019l-.826 2.4Zm-2.345 2.696 2.488-7.077h1.472l2.487 7.077h-1.566l-.523-1.571h-2.393l-.541 1.571h-1.424Z"/>
          <path fill="#000" d="m98.868 48.417 1.168-.696c.389.772 1.091 1.2 1.899 1.2.712 0 1.224-.267 1.224-.81 0-.533-.502-.762-1.424-1.018-1.253-.352-2.564-.676-2.564-2.153 0-1.314 1.026-2.104 2.536-2.104 1.443 0 2.297.695 2.792 1.447l-1.073.819c-.37-.6-1.044-1-1.728-1-.655 0-1.016.286-1.016.705 0 .562.522.762 1.444 1.019 1.234.333 2.545.723 2.545 2.18 0 1.133-.855 2.143-2.81 2.143-1.52 0-2.47-.724-2.993-1.734"/>
          <polygon fill="#000" points="106.766 50.017 106.766 42.969 111.552 42.969 111.552 44.264 108.314 44.264 108.314 45.778 110.66 45.778 110.66 47.007 108.314 47.007 108.314 48.76 111.724 48.76 111.724 50.017"/>
          <path fill="#000" d="M115.244 46.16h1.054c.892 0 1.32-.257 1.32-.972 0-.696-.428-.953-1.32-.953h-1.054v1.924Zm-1.52 3.857V42.97h2.64c1.729 0 2.764.62 2.764 2.18 0 1.115-.523 1.725-1.462 2.01l1.566 2.857H117.6l-1.462-2.657h-.893v2.657h-1.52Z"/>
          <polygon fill="#000" points="123.01 50.045 120.589 42.969 122.155 42.969 123.76 48.007 123.779 48.007 125.441 42.969 126.894 42.969 124.472 50.045"/>
          <polygon fill="#000" points="128.8 50.017 130.339 50.017 130.339 42.969 128.8 42.969"/>
          <path fill="#000" d="M132.474 46.483c0-2.448 1.415-3.648 3.19-3.648 1.777 0 2.546.953 2.85 2.219l-1.461.429c-.229-.81-.571-1.362-1.397-1.362-1.064 0-1.634.905-1.634 2.362 0 1.486.589 2.419 1.653 2.419.826 0 1.235-.523 1.481-1.485l1.453.323c-.342 1.42-1.178 2.41-2.945 2.41-1.832 0-3.19-1.18-3.19-3.666"/>
          <polygon fill="#000" points="140.676 50.017 140.676 42.969 145.462 42.969 145.462 44.264 142.224 44.264 142.224 45.778 144.57 45.778 144.57 47.007 142.224 47.007 142.224 48.76 145.634 48.76 145.634 50.017"/>
          <path fill="#000" d="m147.132 48.417 1.168-.696c.389.772 1.092 1.2 1.899 1.2.713 0 1.225-.267 1.225-.81 0-.533-.503-.762-1.424-1.018-1.254-.352-2.564-.676-2.564-2.153 0-1.314 1.025-2.104 2.535-2.104 1.443 0 2.298.695 2.792 1.447l-1.073.819c-.37-.6-1.044-1-1.728-1-.655 0-1.016.286-1.016.705 0 .562.523.762 1.444 1.019 1.234.333 2.545.723 2.545 2.18 0 1.133-.854 2.143-2.81 2.143-1.519 0-2.469-.724-2.993-1.734"/>
          <path fill="#000" d="M158.201 46.483c0-2.448 1.415-3.648 3.191-3.648 1.776 0 2.545.953 2.849 2.219l-1.461.429c-.229-.81-.571-1.362-1.397-1.362-1.064 0-1.634.905-1.634 2.362 0 1.486.589 2.419 1.653 2.419.826 0 1.235-.523 1.482-1.485l1.452.323c-.342 1.42-1.178 2.41-2.944 2.41-1.833 0-3.191-1.18-3.191-3.666"/>
          <path fill="#000" d="M171.057 46.493c0-1.476-.684-2.372-1.766-2.372-1.093 0-1.767.896-1.767 2.372 0 1.476.674 2.41 1.767 2.41 1.082 0 1.766-.934 1.766-2.41Zm-5.08 0c0-2.476 1.614-3.657 3.314-3.657 1.69 0 3.304 1.181 3.304 3.657 0 2.476-1.614 3.657-3.304 3.657-1.7 0-3.314-1.181-3.314-3.657Z"/>
          <path fill="#000" d="M174.663 50.017V42.97h2.041l1.568 5.18h.018l1.463-5.18h2.089v7.048h-1.49v-4.81h-.02c-.103.61-.236 1.057-.389 1.572l-1.053 3.238h-1.368l-1.045-3.238c-.16-.534-.254-.838-.407-1.647h-.02v4.885h-1.387Z"/>
          <path fill="#000" d="M185.771 46.312h1.054c.959 0 1.319-.37 1.319-1.048 0-.657-.35-1.028-1.319-1.028h-1.054v2.076Zm-1.539 3.705V42.97h2.554c1.5 0 2.868.4 2.868 2.257 0 1.895-1.482 2.286-2.887 2.286h-.997v2.504h-1.538Z"/>
          <path fill="#000" d="M192.625 47.321h1.652l-.808-2.4h-.018l-.826 2.4Zm-2.346 2.696 2.489-7.077h1.472l2.487 7.077h-1.567l-.522-1.571h-2.393l-.542 1.571h-1.424Z"/>
          <polygon fill="#000" points="198.558 50.017 198.558 42.969 200.106 42.969 203.05 47.465 203.069 47.465 203.069 42.969 204.493 42.969 204.493 50.017 203.069 50.017 200.001 45.483 199.982 45.483 199.982 50.017"/>
          <polygon fill="#000" points="208.67 50.017 208.67 47.026 206.247 42.969 207.843 42.969 209.448 45.712 211.062 42.969 212.638 42.969 210.207 47.026 210.207 50.017"/>
          <path fill="#003865" d="M108.236 19.451v-.23c5.376-1.94 6.944-4.273 6.944-9.265 0-5.629-2.921-8.592-7.724-9.266a16.394 16.394 0 0 0-2.267-.152h-9.515c-2.833 0-4.816 1.155-4.816 4.85v27.49h6.233V7.699c0-1.848.473-2.311 2.36-2.311h5.337c1.08 0 4.675.825 4.675 4.52 0 1.091-.306 2.623-1.981 3.663l-.022.013-.007.004s-.723.386-1.957.781c-1.234.394-2.61.559-3.39 1.57-.298.386-.65 1.175-.739 1.88-.103.82.39 2.419 1.004 3.296l6.62 11.764h7.555l-8.311-13.428Z"/>
          <path fill="#003865" d="M84.781.537c-2.845 0-5.151 2.313-5.151 5.166v15.44c0 1.315-.072 2.432-.257 3.37-.172.874-.442 1.592-.85 2.16-.85 1.18-2.291 1.724-4.654 1.724-4.722 0-5.761-2.172-5.761-7.254V.537H66.99c-2.825 0-5.115 2.297-5.115 5.13v15.476c0 4.767.94 7.827 3.007 9.683 1.94 1.741 4.872 2.423 8.988 2.423 8.5 0 11.994-2.865 11.994-12.106V.537H84.78Z"/>
          <path fill="#003865" d="M160.416.537c-2.424 0-4.518 1.697-5.025 4.074l-4.277 19.984c-.095.415-.33.97-.756.97-.33 0-.613-.416-.707-.785l-4.724-21.286c-.424-1.894-1.368-3.326-4.58-3.326-3.541 0-4.203 1.618-4.58 3.326l-1.07 4.82v.001l-3.652 16.464c-.094.37-.378.786-.708.786-.473 0-.615-.555-.71-.97l-4.28-20.01C124.842 2.224 122.761.537 120.352.537h-2.2l6.518 28.183c.614 2.634 1.605 4.528 5.384 4.528 3.778 0 4.768-1.894 5.241-4.159l4.439-20.084c.189-.6.331-.877.662-.877.243 0 .415.206.549.643.02.08.046.151.064.234l4.392 20.084c.473 2.265 1.512 4.159 5.29 4.159s4.723-1.94 5.336-4.528L162.59.537h-2.174Z"/>
          <path fill="#003865" d="M25.128.537a5.67 5.67 0 0 0-4.686 3.02L14.445 16.732l-.183.299L8.077 3.53A5.62 5.62 0 0 0 3.422.537H0L11.324 23.352l-.18.63-4.048 8.896h3.632c.142 0 .28-.018.417-.03v.03l.022-.032a4.838 4.838 0 0 0 3.794-2.691L28.524.537h-3.396Z"/>
          <path fill="#003865" d="M210.297.537a5.67 5.67 0 0 0-4.686 3.02l-5.997 13.175-.183.299-6.185-13.501A5.62 5.62 0 0 0 188.591.537h-3.422l11.325 22.815-.18.63-4.049 8.896h3.633c.141 0 .278-.018.416-.03v.03l.022-.032a4.838 4.838 0 0 0 3.795-2.691L213.693.537h-3.396Z"/>
          <path fill="#003865" d="M42.64 28.399c6.716 0 7.757-2.916 7.757-11.707 0-8.791-1.04-11.706-7.756-11.706-6.716 0-7.757 2.915-7.757 11.706 0 8.79 1.04 11.707 7.757 11.707Zm14.187-11.707c0 12.632-2.79 16.565-14.187 16.565-11.303 0-14.188-3.933-14.188-16.565 0-12.631 2.885-16.564 14.188-16.564 11.397 0 14.187 3.933 14.187 16.564"/>
          <path fill="#EB3300" d="m168.297 4.24-.739 2.306c1.061-3.311 6.504-2.782 7.377 0v.002c.07.17.138.37.209.602l3.967 13.167 1.134 4.344 2.455 8.177h6.564L180.103 4.24C179.064 1.005 177.034.127 174.2.127c-2.975 0-4.864.878-5.903 4.113"/>
          <path fill="#FF8C00" d="m167.558 6.546-8.422 26.292h6.564l2.408-8.177 1.134-4.344 4.013-13.167c.284-.925.52-1.34.945-1.34.318 0 .531.233.735.738l-.001-.002c-.873-2.782-6.315-3.31-7.376 0"/>
        </g>
      </g>
    </g>
  </g>
</svg>
