<svg xmlns="http://www.w3.org/2000/svg" viewBox="0 0 64 64" fill="none" aria-label="Express It Logistics Logo">
  <!-- Top Gear - Larger, Pink (#e91e63) -->
  <g transform="translate(32, 26)">
    <circle cx="0" cy="0" r="12" fill="#e91e63"/>
    <rect x="-3" y="-17" width="6" height="5" fill="#e91e63" rx="1"/>
    <rect x="-3" y="12" width="6" height="5" fill="#e91e63" rx="1"/>
    <rect x="-17" y="-3" width="5" height="6" fill="#e91e63" rx="1"/>
    <rect x="12" y="-3" width="5" height="6" fill="#e91e63" rx="1"/>
    <rect x="9" y="-13" width="5" height="5" fill="#e91e63" transform="rotate(45 11.5 -10.5)"/>
    <rect x="-14" y="-13" width="5" height="5" fill="#e91e63" transform="rotate(-45 -11.5 -10.5)"/>
    <rect x="9" y="8" width="5" height="5" fill="#e91e63" transform="rotate(-45 11.5 10.5)"/>
    <rect x="-14" y="8" width="5" height="5" fill="#e91e63" transform="rotate(45 -11.5 10.5)"/>
    <circle cx="0" cy="0" r="4" fill="white"/>
  </g>
  
  <!-- Bottom Gear - Smaller, Grey (#6b7280) -->
  <g transform="translate(32, 44)">
    <circle cx="0" cy="0" r="9" fill="#6b7280"/>
    <rect x="-2.5" y="-12" width="5" height="4" fill="#6b7280" rx="1"/>
    <rect x="-2.5" y="8" width="5" height="4" fill="#6b7280" rx="1"/>
    <rect x="-12" y="-2.5" width="4" height="5" fill="#6b7280" rx="1"/>
    <rect x="8" y="-2.5" width="4" height="5" fill="#6b7280" rx="1"/>
    <rect x="6" y="-9" width="4" height="4" fill="#6b7280" transform="rotate(45 8 -7)"/>
    <rect x="-10" y="-9" width="4" height="4" fill="#6b7280" transform="rotate(-45 -8 -7)"/>
    <rect x="6" y="5" width="4" height="4" fill="#6b7280" transform="rotate(-45 8 7)"/>
    <rect x="-10" y="5" width="4" height="4" fill="#6b7280" transform="rotate(45 -8 7)"/>
    <circle cx="0" cy="0" r="3" fill="white"/>
  </g>
</svg>
