<svg xmlns="http://www.w3.org/2000/svg" viewBox="0 0 64 64" fill="none" aria-label="Express IT Logistics Ltd Logo">
  <!-- 
    Express IT Logistics Ltd Logo
    Two interlocking gears with embroidery-safe flat paths
    
    Colors:
    - Pink: #e91e63
    - Grey: #6b7280
    
    Gear Orientation:
    - Pink gear: ~10 o'clock position
    - Grey gear: ~4 o'clock position
  -->
  
  <!-- PINK GEAR (Larger, Top-Left) -->
  <!-- 24 teeth, stubby design for embroidery -->
  <g id="gear-pink">
    <!-- Gear body -->
    <circle cx="24" cy="24" r="13" fill="#e91e63"/>
    <circle cx="24" cy="24" r="18" fill="white"/>
    
    <!-- 24 teeth using direct paths (embroidery-safe) -->
    <g fill="#e91e63">
      <!-- Teeth positioned around the gear center (24, 24) -->
      <!-- Tooth 1 (top) -->
      <rect x="22.5" y="8" width="3" height="3.5" rx="0.5"/>
      <!-- Tooth 2 -->
      <rect x="22.5" y="8" width="3" height="3.5" rx="0.5" transform="rotate(15 24 24)"/>
      <!-- Tooth 3 -->
      <rect x="22.5" y="8" width="3" height="3.5" rx="0.5" transform="rotate(30 24 24)"/>
      <!-- Tooth 4 -->
      <rect x="22.5" y="8" width="3" height="3.5" rx="0.5" transform="rotate(45 24 24)"/>
      <!-- Tooth 5 -->
      <rect x="22.5" y="8" width="3" height="3.5" rx="0.5" transform="rotate(60 24 24)"/>
      <!-- Tooth 6 -->
      <rect x="22.5" y="8" width="3" height="3.5" rx="0.5" transform="rotate(75 24 24)"/>
      <!-- Tooth 7 -->
      <rect x="22.5" y="8" width="3" height="3.5" rx="0.5" transform="rotate(90 24 24)"/>
      <!-- Tooth 8 -->
      <rect x="22.5" y="8" width="3" height="3.5" rx="0.5" transform="rotate(105 24 24)"/>
      <!-- Tooth 9 -->
      <rect x="22.5" y="8" width="3" height="3.5" rx="0.5" transform="rotate(120 24 24)"/>
      <!-- Tooth 10 -->
      <rect x="22.5" y="8" width="3" height="3.5" rx="0.5" transform="rotate(135 24 24)"/>
      <!-- Tooth 11 -->
      <rect x="22.5" y="8" width="3" height="3.5" rx="0.5" transform="rotate(150 24 24)"/>
      <!-- Tooth 12 -->
      <rect x="22.5" y="8" width="3" height="3.5" rx="0.5" transform="rotate(165 24 24)"/>
      <!-- Tooth 13 -->
      <rect x="22.5" y="8" width="3" height="3.5" rx="0.5" transform="rotate(180 24 24)"/>
      <!-- Tooth 14 -->
      <rect x="22.5" y="8" width="3" height="3.5" rx="0.5" transform="rotate(195 24 24)"/>
      <!-- Tooth 15 -->
      <rect x="22.5" y="8" width="3" height="3.5" rx="0.5" transform="rotate(210 24 24)"/>
      <!-- Tooth 16 -->
      <rect x="22.5" y="8" width="3" height="3.5" rx="0.5" transform="rotate(225 24 24)"/>
      <!-- Tooth 17 -->
      <rect x="22.5" y="8" width="3" height="3.5" rx="0.5" transform="rotate(240 24 24)"/>
      <!-- Tooth 18 -->
      <rect x="22.5" y="8" width="3" height="3.5" rx="0.5" transform="rotate(255 24 24)"/>
      <!-- Tooth 19 -->
      <rect x="22.5" y="8" width="3" height="3.5" rx="0.5" transform="rotate(270 24 24)"/>
      <!-- Tooth 20 -->
      <rect x="22.5" y="8" width="3" height="3.5" rx="0.5" transform="rotate(285 24 24)"/>
      <!-- Tooth 21 -->
      <rect x="22.5" y="8" width="3" height="3.5" rx="0.5" transform="rotate(300 24 24)"/>
      <!-- Tooth 22 -->
      <rect x="22.5" y="8" width="3" height="3.5" rx="0.5" transform="rotate(315 24 24)"/>
      <!-- Tooth 23 -->
      <rect x="22.5" y="8" width="3" height="3.5" rx="0.5" transform="rotate(330 24 24)"/>
      <!-- Tooth 24 -->
      <rect x="22.5" y="8" width="3" height="3.5" rx="0.5" transform="rotate(345 24 24)"/>
    </g>
  </g>

  <!-- GREY GEAR (Smaller, Bottom-Right) -->
  <!-- 16 teeth, stubby design for embroidery -->
  <g id="gear-grey">
    <!-- Gear body -->
    <circle cx="40" cy="40" r="10" fill="#6b7280"/>
    <circle cx="40" cy="40" r="14" fill="white"/>
    
    <!-- 16 teeth using direct paths (embroidery-safe) -->
    <g fill="#6b7280">
      <!-- Teeth positioned around the gear center (40, 40) -->
      <!-- Tooth 1 (top) -->
      <rect x="38" y="27" width="4" height="3.5" rx="0.5"/>
      <!-- Tooth 2 -->
      <rect x="38" y="27" width="4" height="3.5" rx="0.5" transform="rotate(22.5 40 40)"/>
      <!-- Tooth 3 -->
      <rect x="38" y="27" width="4" height="3.5" rx="0.5" transform="rotate(45 40 40)"/>
      <!-- Tooth 4 -->
      <rect x="38" y="27" width="4" height="3.5" rx="0.5" transform="rotate(67.5 40 40)"/>
      <!-- Tooth 5 -->
      <rect x="38" y="27" width="4" height="3.5" rx="0.5" transform="rotate(90 40 40)"/>
      <!-- Tooth 6 -->
      <rect x="38" y="27" width="4" height="3.5" rx="0.5" transform="rotate(112.5 40 40)"/>
      <!-- Tooth 7 -->
      <rect x="38" y="27" width="4" height="3.5" rx="0.5" transform="rotate(135 40 40)"/>
      <!-- Tooth 8 -->
      <rect x="38" y="27" width="4" height="3.5" rx="0.5" transform="rotate(157.5 40 40)"/>
      <!-- Tooth 9 -->
      <rect x="38" y="27" width="4" height="3.5" rx="0.5" transform="rotate(180 40 40)"/>
      <!-- Tooth 10 -->
      <rect x="38" y="27" width="4" height="3.5" rx="0.5" transform="rotate(202.5 40 40)"/>
      <!-- Tooth 11 -->
      <rect x="38" y="27" width="4" height="3.5" rx="0.5" transform="rotate(225 40 40)"/>
      <!-- Tooth 12 -->
      <rect x="38" y="27" width="4" height="3.5" rx="0.5" transform="rotate(247.5 40 40)"/>
      <!-- Tooth 13 -->
      <rect x="38" y="27" width="4" height="3.5" rx="0.5" transform="rotate(270 40 40)"/>
      <!-- Tooth 14 -->
      <rect x="38" y="27" width="4" height="3.5" rx="0.5" transform="rotate(292.5 40 40)"/>
      <!-- Tooth 15 -->
      <rect x="38" y="27" width="4" height="3.5" rx="0.5" transform="rotate(315 40 40)"/>
      <!-- Tooth 16 -->
      <rect x="38" y="27" width="4" height="3.5" rx="0.5" transform="rotate(337.5 40 40)"/>
    </g>
  </g>
</svg>
