<svg xmlns="http://www.w3.org/2000/svg" viewBox="0 0 64 64" fill="none" aria-label="Express IT Logistics Ltd Logo">
  <!-- 
    Express IT Logistics Ltd Logo
    Two interlocking gears with embroidery-safe flat paths
    
    Colors:
    - Pink: #e91e63
    - Grey: #6b7280
    - White: #ffffff (inner hubs only - transparent background)
    
    Geometry Documentation (Soft Lock):
    ==========================================
    
    PINK GEAR (Left, ~10 o'clock orientation):
    - Center: (24, 24)
    - Body radius: 13
    - Teeth: 24 teeth, 3x3.5px, 15 deg intervals
    - Inner white hub radius: 5.5 (EXACT VALUE)
    - Rotation: -60 deg (EXACT VALUE)
    - Orientation reference: 10 o'clock
    
    GREY GEAR (Right, ~4 o'clock orientation):
    - Center: (40, 40)
    - Body radius: 10
    - Teeth: 16 teeth, 4x3.5px, 22.5 deg intervals
    - Inner white hub radius: 6 (EXACT VALUE)
    - Rotation: +60 deg (EXACT VALUE)
    - Orientation reference: 4 o'clock
    
    Multi-Output Safety:
    - Solid fills only (no gradients)
    - Closed paths only
    - No raster effects
    - Transparent background (no white outside gears)
    - Suitable for: web, favicon, PWA (192/512), print, embroidery
    
    ==========================================
  -->
  
  <!-- PINK GEAR (Larger, Top-Left) -->
  <g id="gear-pink" transform="rotate(-60 24 24)">
    <circle cx="24" cy="24" r="13" fill="#e91e63"/>
    <!-- Inner white hub: radius increased from 4 to 5.5 for mechanical realism -->
    <circle cx="24" cy="24" r="5.5" fill="white"/>
    <g fill="#e91e63">
      <rect x="22.5" y="8" width="3" height="3.5" rx="0.5"/>
      <rect x="22.5" y="8" width="3" height="3.5" rx="0.5" transform="rotate(15 24 24)"/>
      <rect x="22.5" y="8" width="3" height="3.5" rx="0.5" transform="rotate(30 24 24)"/>
      <rect x="22.5" y="8" width="3" height="3.5" rx="0.5" transform="rotate(45 24 24)"/>
      <rect x="22.5" y="8" width="3" height="3.5" rx="0.5" transform="rotate(60 24 24)"/>
      <rect x="22.5" y="8" width="3" height="3.5" rx="0.5" transform="rotate(75 24 24)"/>
      <rect x="22.5" y="8" width="3" height="3.5" rx="0.5" transform="rotate(90 24 24)"/>
      <rect x="22.5" y="8" width="3" height="3.5" rx="0.5" transform="rotate(105 24 24)"/>
      <rect x="22.5" y="8" width="3" height="3.5" rx="0.5" transform="rotate(120 24 24)"/>
      <rect x="22.5" y="8" width="3" height="3.5" rx="0.5" transform="rotate(135 24 24)"/>
      <rect x="22.5" y="8" width="3" height="3.5" rx="0.5" transform="rotate(150 24 24)"/>
      <rect x="22.5" y="8" width="3" height="3.5" rx="0.5" transform="rotate(165 24 24)"/>
      <rect x="22.5" y="8" width="3" height="3.5" rx="0.5" transform="rotate(180 24 24)"/>
      <rect x="22.5" y="8" width="3" height="3.5" rx="0.5" transform="rotate(195 24 24)"/>
      <rect x="22.5" y="8" width="3" height="3.5" rx="0.5" transform="rotate(210 24 24)"/>
      <rect x="22.5" y="8" width="3" height="3.5" rx="0.5" transform="rotate(225 24 24)"/>
      <rect x="22.5" y="8" width="3" height="3.5" rx="0.5" transform="rotate(240 24 24)"/>
      <rect x="22.5" y="8" width="3" height="3.5" rx="0.5" transform="rotate(255 24 24)"/>
      <rect x="22.5" y="8" width="3" height="3.5" rx="0.5" transform="rotate(270 24 24)"/>
      <rect x="22.5" y="8" width="3" height="3.5" rx="0.5" transform="rotate(285 24 24)"/>
      <rect x="22.5" y="8" width="3" height="3.5" rx="0.5" transform="rotate(300 24 24)"/>
      <rect x="22.5" y="8" width="3" height="3.5" rx="0.5" transform="rotate(315 24 24)"/>
      <rect x="22.5" y="8" width="3" height="3.5" rx="0.5" transform="rotate(330 24 24)"/>
      <rect x="22.5" y="8" width="3" height="3.5" rx="0.5" transform="rotate(345 24 24)"/>
    </g>
  </g>

  <!-- GREY GEAR (Smaller, Bottom-Right) -->
  <g id="gear-grey" transform="rotate(60 40 40)">
    <circle cx="40" cy="40" r="10" fill="#6b7280"/>
    <!-- Inner white hub: radius reduced from 7 to 6 for visual harmony -->
    <circle cx="40" cy="40" r="6" fill="white"/>
    <g fill="#6b7280">
      <rect x="38" y="27" width="4" height="3.5" rx="0.5"/>
      <rect x="38" y="27" width="4" height="3.5" rx="0.5" transform="rotate(22.5 40 40)"/>
      <rect x="38" y="27" width="4" height="3.5" rx="0.5" transform="rotate(45 40 40)"/>
      <rect x="38" y="27" width="4" height="3.5" rx="0.5" transform="rotate(67.5 40 40)"/>
      <rect x="38" y="27" width="4" height="3.5" rx="0.5" transform="rotate(90 40 40)"/>
      <rect x="38" y="27" width="4" height="3.5" rx="0.5" transform="rotate(112.5 40 40)"/>
      <rect x="38" y="27" width="4" height="3.5" rx="0.5" transform="rotate(135 40 40)"/>
      <rect x="38" y="27" width="4" height="3.5" rx="0.5" transform="rotate(157.5 40 40)"/>
      <rect x="38" y="27" width="4" height="3.5" rx="0.5" transform="rotate(180 40 40)"/>
      <rect x="38" y="27" width="4" height="3.5" rx="0.5" transform="rotate(202.5 40 40)"/>
      <rect x="38" y="27" width="4" height="3.5" rx="0.5" transform="rotate(225 40 40)"/>
      <rect x="38" y="27" width="4" height="3.5" rx="0.5" transform="rotate(247.5 40 40)"/>
      <rect x="38" y="27" width="4" height="3.5" rx="0.5" transform="rotate(270 40 40)"/>
      <rect x="38" y="27" width="4" height="3.5" rx="0.5" transform="rotate(292.5 40 40)"/>
      <rect x="38" y="27" width="4" height="3.5" rx="0.5" transform="rotate(315 40 40)"/>
      <rect x="38" y="27" width="4" height="3.5" rx="0.5" transform="rotate(337.5 40 40)"/>
    </g>
  </g>
</svg>
