<?xml version="1.0" encoding="UTF-8"?>
<svg id="Layer_1" data-name="Layer 1" xmlns="http://www.w3.org/2000/svg" viewBox="0 0 512 512">
  <defs>
    <style>
      .cls-1 {
        fill: #ed148c;
      }

      .cls-2 {
        fill: #6f7273;
      }
    </style>
  </defs>
  <path class="cls-1" d="M333.7,289.76c3.71-10.92,6.12-22.38,7.11-34.19l-23.58-11.43c.02-3.82-.11-7.67-.46-11.54-.09-1.34-.28-2.65-.43-3.99l22.19-14.02c-2.31-11.64-5.98-22.77-10.86-33.16l-26.2,1.9c-2.56-4.54-5.41-8.9-8.52-13.03l12.2-23.19c-7.7-8.76-16.45-16.58-26.02-23.28l-21.73,14.73c-4.45-2.63-9.08-4.98-13.87-7.05l-1.03-26.18c-10.92-3.71-22.39-6.13-34.19-7.14l-11.43,23.6c-3.82-.04-7.65.12-11.54.45-1.35.12-2.67.29-3.99.45l-14-22.21c-11.66,2.33-22.79,6-33.2,10.86l1.91,26.2c-4.53,2.56-8.9,5.41-13.02,8.52l-23.21-12.2c-8.78,7.72-16.59,16.46-23.27,26.04l14.74,21.71c-2.64,4.46-5.01,9.08-7.06,13.86l-26.2,1.03c-3.71,10.92-6.11,22.37-7.11,34.2l23.59,11.42c-.02,3.83.1,7.67.43,11.54.12,1.34.29,2.65.46,3.98l-22.21,14.01c2.33,11.65,5.99,22.77,10.86,33.18l26.19-1.9c2.57,4.53,5.41,8.88,8.52,13.02l-12.2,23.19c7.71,8.79,16.47,16.61,26.03,23.29l21.72-14.73c4.46,2.65,9.09,5.01,13.87,7.06l1.03,26.19c10.92,3.7,22.36,6.12,34.17,7.12l11.46-23.59c3.81.02,7.66-.11,11.54-.44,1.33-.11,2.65-.29,3.96-.46l14.01,22.23c11.68-2.33,22.79-5.99,33.2-10.86l-1.9-26.21c4.52-2.58,8.87-5.41,13.02-8.52l23.2,12.2c8.76-7.72,16.58-16.46,23.27-26.03l-14.71-21.72c2.62-4.46,4.97-9.09,7.05-13.88l26.18-1.02ZM195.9,352.69c-60.43,0-109.57-49.15-109.57-109.57s49.14-109.57,109.57-109.57,109.55,49.16,109.55,109.57-49.15,109.57-109.55,109.57ZM195.9,141.38c-56.12,0-101.74,45.64-101.74,101.74s45.62,101.74,101.74,101.74,101.73-45.64,101.73-101.74-45.63-101.74-101.73-101.74ZM195.9,328.65c-47.17,0-85.53-38.37-85.53-85.53s38.36-85.53,85.53-85.53,85.51,38.37,85.51,85.53-38.36,85.53-85.51,85.53Z"/>
  <path class="cls-2" d="M457.46,364.42c1.86-5.49,3.08-11.25,3.57-17.18l-11.85-5.74c.01-1.92-.06-3.85-.23-5.8-.05-.67-.14-1.33-.22-2l11.15-7.05c-1.16-5.85-3-11.44-5.46-16.67l-13.17.95c-1.28-2.28-2.72-4.47-4.28-6.55l6.13-11.66c-3.87-4.4-8.27-8.33-13.07-11.7l-10.92,7.4c-2.24-1.32-4.56-2.5-6.97-3.54l-.52-13.16c-5.49-1.86-11.25-3.08-17.18-3.59l-5.74,11.86c-1.92-.02-3.85.06-5.8.22-.68.06-1.34.14-2,.22l-7.03-11.16c-5.86,1.17-11.45,3.01-16.68,5.46l.96,13.17c-2.28,1.29-4.47,2.72-6.54,4.28l-11.67-6.13c-4.41,3.88-8.34,8.27-11.69,13.09l7.41,10.91c-1.33,2.24-2.52,4.56-3.55,6.97l-13.17.52c-1.86,5.49-3.07,11.24-3.57,17.19l11.86,5.74c-.01,1.92.05,3.85.22,5.8.06.67.14,1.33.23,2l-11.16,7.04c1.17,5.85,3.01,11.44,5.46,16.67l13.16-.95c1.29,2.28,2.72,4.46,4.28,6.54l-6.13,11.65c3.87,4.42,8.28,8.34,13.08,11.7l10.91-7.4c2.24,1.33,4.57,2.52,6.97,3.55l.52,13.16c5.49,1.86,11.24,3.08,17.17,3.58l5.76-11.86c1.91.01,3.85-.05,5.8-.22.67-.05,1.33-.14,1.99-.23l7.04,11.17c5.87-1.17,11.45-3.01,16.69-5.46l-.95-13.17c2.27-1.3,4.46-2.72,6.54-4.28l11.66,6.13c4.4-3.88,8.33-8.27,11.69-13.08l-7.39-10.91c1.31-2.24,2.5-4.57,3.54-6.97l13.16-.51ZM388.21,396.05c-30.37,0-55.06-24.7-55.06-55.06s24.7-55.06,55.06-55.06,55.06,24.7,55.06,55.06-24.7,55.06-55.06,55.06ZM388.21,289.85c-28.2,0-51.13,22.94-51.13,51.13s22.93,51.13,51.13,51.13,51.12-22.94,51.12-51.13-22.93-51.13-51.12-51.13ZM388.21,383.96c-23.71,0-42.98-19.28-42.98-42.98s19.28-42.98,42.98-42.98,42.97,19.28,42.97,42.98-19.28,42.98-42.97,42.98Z"/>
</svg>